<?xml version="1.0" encoding="iso-8859-1"?>
<!-- Generator: Adobe Illustrator 19.0.0, SVG Export Plug-In . SVG Version: 6.00 Build 0)  -->
<svg version="1.1" id="Capa_1" xmlns="http://www.w3.org/2000/svg" xmlns:xlink="http://www.w3.org/1999/xlink" x="0px" y="0px"
	 viewBox="0 0 512.005 512.005" style="enable-background:new 0 0 512.005 512.005;" xml:space="preserve">
<g transform="translate(0 -1)">
	<g transform="translate(1 1)">
		<rect x="186.736" y="418.139" style="fill:#607D8B;" width="136.533" height="68.267"/>
		<rect x="186.736" y="418.139" style="fill:#CFD8DC;" width="110.933" height="68.267"/>
		<path style="fill:#00838F;" d="M502.469,41.332v361.079c-0.39,18.473-15.66,33.143-34.133,32.794H41.669
			c-18.473,0.349-33.743-14.322-34.133-32.794V41.332C7.927,22.86,23.196,8.19,41.669,8.539h426.667
			C486.809,8.19,502.079,22.86,502.469,41.332z"/>
		<path style="fill:#00BCD4;" d="M476.869,41.332v361.079c-0.39,18.473-15.66,33.143-34.133,32.794H41.669
			c-18.473,0.349-33.743-14.322-34.133-32.794V41.332C7.927,22.86,23.196,8.19,41.669,8.539h401.067
			C461.209,8.19,476.479,22.86,476.869,41.332z"/>
		<path style="fill:#37474F;" d="M391.536,494.939v8.533H118.469l0-8.533c-0.009-6.792,2.685-13.309,7.488-18.112
			c4.803-4.803,11.32-7.497,18.112-7.488h221.867c6.792-0.009,13.309,2.685,18.112,7.488
			C388.851,481.63,391.545,488.146,391.536,494.939z"/>
		<path style="fill:#607D8B;" d="M365.936,494.939v8.533H118.469l0-8.533c-0.009-6.792,2.685-13.309,7.488-18.112
			c4.803-4.803,11.32-7.497,18.112-7.488h196.267c6.792-0.009,13.309,2.685,18.112,7.488
			C363.251,481.63,365.945,488.146,365.936,494.939z"/>
		<path style="fill:#37474F;" d="M502.469,366.939v26.237c-0.191,18.669-15.464,33.657-34.133,33.496H41.669
			C23,426.833,7.727,411.845,7.536,393.176v-26.237H502.469z"/>
		<path style="fill:#607D8B;" d="M476.869,366.939v26.237c-0.191,18.669-15.464,33.657-34.133,33.496H41.669
			C23,426.833,7.727,411.845,7.536,393.176v-26.237H476.869z"/>
		<path style="fill:#C52828;" d="M425.669,110.939v85.333c0.789,17.982-13.085,33.228-31.061,34.133H115.312
			c-17.96-0.914-31.804-16.17-30.976-34.133v-85.333c-0.828-17.964,13.016-33.22,30.976-34.133h279.296
			C412.584,77.711,426.458,92.957,425.669,110.939z"/>
		<path style="fill:#F44335;" d="M400.069,110.939v85.333c0.789,17.982-13.085,33.228-31.061,34.133H115.312
			c-17.96-0.914-31.804-16.17-30.976-34.133v-85.333c-0.828-17.964,13.016-33.22,30.976-34.133h253.696
			C386.984,77.711,400.858,92.957,400.069,110.939z"/>
		<path style="fill:#FFEB3A;" d="M144.069,273.072l-34.133,51.2h-8.533c-9.414-0.028-17.039-7.652-17.067-17.067v-17.067
			c0.028-9.414,7.652-17.039,17.067-17.067H144.069z"/>
		<g>
			<path style="fill:#F44335;" d="M425.669,290.139v17.067c-0.028,9.414-7.653,17.039-17.067,17.067h-42.667l34.133-51.2h8.533
				C418.017,273.1,425.642,280.724,425.669,290.139z"/>
			<polygon style="fill:#F44335;" points="186.736,273.072 152.603,324.272 109.936,324.272 144.069,273.072 			"/>
		</g>
		<polygon style="fill:#FFEB3A;" points="229.403,273.072 195.269,324.272 152.603,324.272 186.736,273.072 		"/>
		<polygon style="fill:#F44335;" points="272.069,273.072 237.936,324.272 195.269,324.272 229.403,273.072 		"/>
		<polygon style="fill:#FFEB3A;" points="314.736,273.072 280.603,324.272 237.936,324.272 272.069,273.072 		"/>
		<polygon style="fill:#F44335;" points="357.403,273.072 323.269,324.272 280.603,324.272 314.736,273.072 		"/>
		<polygon style="fill:#FFEB3A;" points="400.069,273.072 365.936,324.272 323.269,324.272 357.403,273.072 		"/>
	</g>
	<g>
		<path d="M469.336,1.005H42.669C19.519,0.639,0.437,19.073,0.003,42.222v352.767c0.434,23.149,19.517,41.583,42.667,41.217h136.533
			v25.6h-34.133c-18.843,0.02-34.113,15.29-34.133,34.133v8.533c-0.001,2.263,0.898,4.434,2.499,6.035
			c1.6,1.6,3.771,2.499,6.035,2.499h273.067c2.263,0.001,4.434-0.898,6.035-2.499c1.6-1.6,2.499-3.771,2.499-6.035v-8.533
			c-0.02-18.843-15.29-34.113-34.133-34.133h-34.133v-25.6h136.533c23.15,0.366,42.232-18.068,42.667-41.217V42.222
			C511.568,19.073,492.486,0.639,469.336,1.005z M42.669,18.072h426.667c13.728-0.373,25.173,10.424,25.6,24.15v317.183H17.069
			V42.222C17.496,28.496,28.942,17.699,42.669,18.072z M384.003,495.939h-256c0.011-9.421,7.645-17.056,17.067-17.067h221.867
			C376.357,478.883,383.992,486.518,384.003,495.939z M315.736,461.805H196.269v-25.6h119.467V461.805z M469.336,419.139H42.669
			c-13.728,0.373-25.173-10.424-25.6-24.15v-18.517h477.867v18.517C494.509,408.715,483.064,419.512,469.336,419.139z"/>
		<path d="M116.336,239.939l279.692-0.012c22.518-1.118,39.958-20.123,39.142-42.654l-0.009-84.946
			c0.941-22.804-16.756-42.065-39.558-43.054l-279.692,0.012c-22.518,1.118-39.958,20.123-39.142,42.654l0.009,84.946
			C75.837,219.688,93.534,238.95,116.336,239.939z M116.336,86.339l278.842-0.012c13.402,0.745,23.664,12.21,22.925,25.612
			l0.009,85.721c0.613,13.131-9.392,24.339-22.508,25.212l-278.842,0.012c-13.403-0.744-23.666-12.21-22.925-25.612l-0.009-85.721
			C93.212,98.42,103.219,87.211,116.336,86.339z"/>
		<path d="M145.036,180.205h34.133v17.067c0,4.713,3.82,8.533,8.533,8.533s8.533-3.82,8.533-8.533v-17.067h8.533
			c4.713,0,8.533-3.821,8.533-8.533s-3.821-8.533-8.533-8.533h-8.533v-8.533c0-4.713-3.821-8.533-8.533-8.533
			s-8.533,3.821-8.533,8.533v8.533h-19.425l26.833-46.967c2.326-4.09,0.902-9.292-3.184-11.626c-4.086-2.335-9.29-0.921-11.633,3.16
			l-34.133,59.733c-1.511,2.641-1.501,5.886,0.026,8.518C139.18,178.588,141.993,180.207,145.036,180.205z"/>
		<path d="M307.169,180.205h34.133v17.067c0,4.713,3.82,8.533,8.533,8.533s8.533-3.82,8.533-8.533v-17.067h8.533
			c4.713,0,8.533-3.821,8.533-8.533s-3.821-8.533-8.533-8.533h-8.533v-8.533c0-4.713-3.82-8.533-8.533-8.533
			s-8.533,3.821-8.533,8.533v8.533h-19.425l26.833-46.967c2.326-4.09,0.902-9.292-3.184-11.626c-4.086-2.335-9.29-0.921-11.633,3.16
			l-34.133,59.733c-1.511,2.641-1.501,5.886,0.026,8.518C301.314,178.588,304.127,180.207,307.169,180.205z"/>
		<path d="M247.436,205.805h17.067c14.132-0.015,25.585-11.468,25.6-25.6v-51.2c-0.015-14.132-11.468-25.585-25.6-25.6h-17.067
			c-14.132,0.015-25.585,11.468-25.6,25.6v51.2C221.851,194.337,233.304,205.79,247.436,205.805z M238.903,129.005
			c0.005-4.711,3.822-8.529,8.533-8.533h17.067c4.711,0.005,8.529,3.822,8.533,8.533v51.2c-0.005,4.711-3.822,8.529-8.533,8.533
			h-17.067c-4.711-0.005-8.529-3.822-8.533-8.533V129.005z"/>
		<path d="M409.603,265.539h-307.2c-14.132,0.015-25.585,11.468-25.6,25.6v17.067c0.015,14.132,11.468,25.585,25.6,25.6h307.2
			c14.132-0.015,25.585-11.468,25.6-25.6v-17.067C435.187,277.007,423.735,265.554,409.603,265.539z M340.213,316.739l22.756-34.133
			h22.156l-22.756,34.133H340.213z M297.546,316.739l22.756-34.133h22.156l-22.756,34.133H297.546z M254.88,316.739l22.756-34.133
			h22.156l-22.756,34.133H254.88z M212.213,316.739l22.756-34.133h22.156l-22.756,34.133H212.213z M169.546,316.739l22.756-34.133
			h22.156l-22.756,34.133H169.546z M126.88,316.739l22.756-34.133h22.156l-22.756,34.133H126.88z M93.869,308.205v-17.067
			c0.005-4.711,3.822-8.529,8.533-8.533h26.723l-22.756,34.133h-3.967C97.692,316.734,93.874,312.916,93.869,308.205z
			 M418.136,308.205c-0.005,4.711-3.822,8.529-8.533,8.533H382.88l22.756-34.133h3.967c4.711,0.005,8.529,3.822,8.533,8.533V308.205
			z"/>
	</g>
</g>
<g>
</g>
<g>
</g>
<g>
</g>
<g>
</g>
<g>
</g>
<g>
</g>
<g>
</g>
<g>
</g>
<g>
</g>
<g>
</g>
<g>
</g>
<g>
</g>
<g>
</g>
<g>
</g>
<g>
</g>
</svg>
